HIERARCHY
ROOT Hips
{
	OFFSET 0.000000 0.000000 0.000000
	CHANNELS 6 Xposition Yposition Zposition Xrotation Yrotation Zrotation
	JOINT LeftUpLeg_virtual
	{
		OFFSET 0.000000 0.000000 0.000000
		CHANNELS 3 Xrotation Yrotation Zrotation
		JOINT LeftUpLeg
		{
			OFFSET 13.026900 -6.336304 -1.092800
			CHANNELS 3 Xrotation Yrotation Zrotation
			JOINT LeftLeg
			{
				OFFSET 0.524474 -46.096886 9.782700
				CHANNELS 3 Xrotation Yrotation Zrotation
				JOINT LeftFoot
				{
					OFFSET -0.524474 -53.427422 -12.948200
					CHANNELS 3 Xrotation Yrotation Zrotation
					JOINT LeftToeBase
					{
						OFFSET 0.192200 -14.009700 16.364100
						CHANNELS 3 Xrotation Yrotation Zrotation
						JOINT LeftToe_End
						{
							OFFSET -1.784700 -0.561700 9.474800
							CHANNELS 3 Xrotation Yrotation Zrotation
							End Site
							{
								OFFSET 0 0 0
							}
						}
					}
				}
			}
		}
	}
	JOINT RightUpLeg_virtual
	{
		OFFSET 0.000000 0.000000 0.000000
		CHANNELS 3 Xrotation Yrotation Zrotation
		JOINT RightUpLeg
		{
			OFFSET -12.883000 -6.336304 -1.092800
			CHANNELS 3 Xrotation Yrotation Zrotation
			JOINT RightLeg
			{
				OFFSET -0.524587 -46.096825 9.782800
				CHANNELS 3 Xrotation Yrotation Zrotation
				JOINT RightFoot
				{
					OFFSET 0.524587 -53.427383 -12.948300
					CHANNELS 3 Xrotation Yrotation Zrotation
					JOINT RightToeBase
					{
						OFFSET -0.192200 -14.009700 16.364100
						CHANNELS 3 Xrotation Yrotation Zrotation
						JOINT RightToe_End
						{
							OFFSET 1.784700 -0.561700 9.474800
							CHANNELS 3 Xrotation Yrotation Zrotation
							End Site
							{
								OFFSET 0 0 0
							}
						}
					}
				}
			}
		}
	}
	JOINT Spine_virtual
	{
		OFFSET 0.000000 0.000000 0.000000
		CHANNELS 3 Xrotation Yrotation Zrotation
		JOINT Spine
		{
			OFFSET 0.072000 7.257294 -0.789700
			CHANNELS 3 Xrotation Yrotation Zrotation
			JOINT Spine1
			{
				OFFSET 0.000000 12.508769 -0.658067
				CHANNELS 3 Xrotation Yrotation Zrotation
				JOINT Spine1_split
				{
					OFFSET 0.000000 12.508769 -0.658067
					CHANNELS 3 Xrotation Yrotation Zrotation
					JOINT Spine2
					{
						OFFSET 0.000000 12.508769 -0.658067
						CHANNELS 3 Xrotation Yrotation Zrotation
						JOINT Neck_virtual
						{
							OFFSET 0.000000 0.000000 0.000000
							CHANNELS 3 Xrotation Yrotation Zrotation
							JOINT Neck
							{
								OFFSET 0.000000 14.033295 7.520400
								CHANNELS 3 Xrotation Yrotation Zrotation
								JOINT Head
								{
									OFFSET 0.000000 8.198502 5.703100
									CHANNELS 3 Xrotation Yrotation Zrotation
									JOINT HeadTop_End
									{
										OFFSET 0.000000 17.760803 13.332701
										CHANNELS 3 Xrotation Yrotation Zrotation
										End Site
										{
											OFFSET 0 0 0
										}
									}
								}
							}
						}
						JOINT LeftShoulder_virtual
						{
							OFFSET 0.000000 0.000000 0.000000
							CHANNELS 3 Xrotation Yrotation Zrotation
							JOINT LeftShoulder
							{
								OFFSET 6.292450 5.785301 -0.669000
								CHANNELS 3 Xrotation Yrotation Zrotation
								JOINT LeftShoulder_split
								{
									OFFSET 6.292450 5.785301 -0.669000
									CHANNELS 3 Xrotation Yrotation Zrotation
									JOINT LeftArm
									{
										OFFSET 13.907140 -6.093903 1.965100
										CHANNELS 3 Xrotation Yrotation Zrotation
										JOINT LeftForeArm
										{
											OFFSET 34.140198 0.000000 0.000000
											CHANNELS 3 Xrotation Yrotation Zrotation
											JOINT LeftHand
											{
												OFFSET 40.960209 0.000000 0.000000
												CHANNELS 3 Xrotation Yrotation Zrotation
												End Site
												{
													OFFSET 0 0 0
												}
											}
										}
									}
								}
							}
						}
						JOINT RightShoulder_virtual
						{
							OFFSET 0.000000 0.000000 0.000000
							CHANNELS 3 Xrotation Yrotation Zrotation
							JOINT RightShoulder
							{
								OFFSET -6.292450 5.785301 -0.669000
								CHANNELS 3 Xrotation Yrotation Zrotation
								JOINT RightShoulder_split
								{
									OFFSET -6.292450 5.785301 -0.669000
									CHANNELS 3 Xrotation Yrotation Zrotation
									JOINT RightArm
									{
										OFFSET -13.907140 -6.093903 1.965100
										CHANNELS 3 Xrotation Yrotation Zrotation
										JOINT RightForeArm
										{
											OFFSET -34.140198 0.000000 0.000000
											CHANNELS 3 Xrotation Yrotation Zrotation
											JOINT RightHand
											{
												OFFSET -40.960209 0.000000 0.000000
												CHANNELS 3 Xrotation Yrotation Zrotation
												End Site
												{
													OFFSET 0 0 0
												}
											}
										}
									}
								}
							}
						}
					}
				}
			}
		}
	}
}
MOTION
Frames: 10
Frame Time: 0.03333333
10.796451 87.787521 -16.743559 0.000000 0.000000 0.000000 8.557027 -77.334025 13.411380 -31.113718 -9.649941 23.254235 47.584548 -16.392939 5.348149 -3.169218 3.716391 -23.561318 -15.692337 -1.734986 -1.409992 0.000000 0.000000 0.000000 8.545518 -75.934451 13.571966 -20.643617 3.272934 -29.560318 45.656970 20.931439 -7.448413 -17.065412 -14.427310 40.387742 -0.489843 7.210262 -16.429291 0.000000 0.000000 0.000000 5.490557 -74.432881 8.509232 0.197199 5.271233 4.227766 5.307639 2.621100 1.551295 0.292612 -0.261260 0.077955 0.000000 0.000000 0.000000 6.423830 4.105411 1.879051 -7.621391 11.274827 0.288346 -5.923419 9.768578 -8.589384 0.000000 0.000000 0.000000 4.405299 3.488551 0.914994 0.529113 8.819405 -3.258118 -2.406374 -1.089236 -0.957023 -14.026534 10.442385 -64.271616 161.648065 -65.271091 154.822070 0.000000 0.000000 0.000000 7.192793 3.703133 0.642717 -6.477228 3.070901 4.515033 -2.240775 1.564346 7.282821 -13.196327 40.718740 54.130188 -176.533233 65.618563 -176.322549 0.000000 0.000000 0.000000 
10.721178 86.979294 -16.334028 0.000000 0.000000 0.000000 3.079537 -77.188378 7.624478 -32.439280 -9.532598 24.218700 48.700806 -17.220169 6.458733 -5.298559 1.925197 -22.586831 -14.617800 -1.729596 -1.811966 0.000000 0.000000 0.000000 6.117544 -75.705899 10.090306 -18.139633 -0.259284 -28.590055 44.030050 18.699388 -6.684703 -22.026310 -16.814520 33.173539 -2.191163 8.245444 -16.858148 0.000000 0.000000 0.000000 1.744566 -74.476738 4.411178 -0.430363 5.499640 4.482302 5.304167 2.961111 1.897295 0.272203 -0.553996 0.094101 0.000000 0.000000 0.000000 6.935602 4.470049 2.072193 -8.033064 11.138220 0.133034 -4.475874 10.504563 -9.362342 0.000000 0.000000 0.000000 4.939474 3.726509 1.202966 -0.072922 8.342553 -2.940059 -0.976873 -0.153760 -1.614364 -12.260973 8.157162 -65.247814 160.892961 -63.985868 154.502390 0.000000 0.000000 0.000000 7.435250 4.031253 0.976404 -6.722341 1.377143 3.846066 -2.682271 1.572375 7.598856 -12.821835 40.812552 53.805334 -176.351304 64.722026 -176.054710 0.000000 0.000000 0.000000 
10.514721 89.506989 -16.060801 0.000000 0.000000 0.000000 0.957103 -75.316168 5.030165 -34.471104 -9.271493 23.876902 46.042616 -18.887234 7.132813 -3.948475 -0.924907 -23.936898 -11.879656 -1.819898 -1.868987 0.000000 0.000000 0.000000 4.282045 -73.653632 7.726778 -18.405785 -1.970798 -28.572478 44.156685 18.731630 -6.184568 -16.117341 -14.834816 31.862552 -6.830035 8.678383 -15.255782 0.000000 0.000000 0.000000 -1.195284 -72.598286 1.310990 -1.240856 5.444028 4.413155 5.075863 2.991925 2.012810 0.121209 -0.870648 0.059162 0.000000 0.000000 0.000000 7.116993 4.543731 2.102524 -8.183400 10.956354 -0.094368 -2.911265 10.841626 -9.744086 0.000000 0.000000 0.000000 5.179841 3.677998 1.327408 -0.597281 7.607264 -2.298183 0.758009 0.384037 -1.682975 -11.109878 4.639572 -64.788832 161.489509 -62.605528 155.624412 0.000000 0.000000 0.000000 7.404743 3.998143 1.137238 -6.917926 0.173837 3.114562 -2.769744 1.703189 7.595189 -10.754637 39.943206 52.571133 -176.352179 62.836764 -175.920060 0.000000 0.000000 0.000000 
10.209909 95.040291 -15.980207 0.000000 0.000000 0.000000 0.665857 -71.381720 4.045606 -36.090231 -8.653797 22.336426 39.874979 -20.261865 6.753373 0.853576 -4.112862 -26.326013 -11.036454 -2.063157 -1.393528 0.000000 0.000000 0.000000 1.857714 -69.948630 5.284946 -22.162499 -0.919403 -30.150559 46.777534 21.679008 -6.290256 -0.600025 -7.678403 34.883699 -8.049170 7.689704 -12.180299 0.000000 0.000000 0.000000 -2.366368 -69.000292 -0.057357 -1.856164 5.105093 4.141622 4.729202 2.706712 1.946735 -0.060327 -1.005929 0.065785 0.000000 0.000000 0.000000 6.813950 4.288664 2.014812 -8.051582 10.745499 -0.341565 -1.590216 10.755916 -9.579669 0.000000 0.000000 0.000000 5.053866 3.340792 1.321200 -0.968313 6.734876 -1.712878 2.265602 0.479142 -1.180429 -10.501436 0.716955 -63.368289 163.176047 -61.348739 157.924724 0.000000 0.000000 0.000000 7.145636 3.620212 1.127664 -7.055681 -0.409733 2.341137 -2.668129 1.601006 7.234921 -7.452401 38.056909 50.455669 -176.737169 60.274439 -175.787622 0.000000 0.000000 0.000000 
9.825192 102.147331 -15.965895 0.000000 0.000000 0.000000 1.158290 -65.970359 3.625023 -36.926192 -7.505674 20.071742 33.178310 -19.537476 5.716125 7.195412 -5.751398 -27.247870 -11.466228 -2.337313 -1.057664 0.000000 0.000000 0.000000 1.590812 -64.258911 4.285040 -25.114879 0.730564 -30.394967 46.756152 23.546485 -6.034000 12.582810 -1.481544 33.536294 -8.144310 6.165001 -9.166701 0.000000 0.000000 0.000000 -2.370471 -64.142300 -0.326582 -2.198764 4.557003 3.911632 4.438622 2.175360 1.816360 -0.178135 -0.983814 0.056482 0.000000 0.000000 0.000000 6.018607 3.761611 1.864547 -7.634149 10.479237 -0.604899 -1.010680 10.624483 -8.939167 0.000000 0.000000 0.000000 4.688160 2.775989 1.234446 -1.110920 5.756623 -1.572795 3.305470 0.494105 -0.653946 -10.096186 -2.796227 -61.674696 165.819276 -60.285913 161.167015 0.000000 0.000000 0.000000 6.760651 3.040298 1.029260 -7.149372 -0.353488 1.666271 -2.542924 1.330560 6.727499 -4.023237 35.126765 47.896278 -177.429873 57.801869 -175.704076 0.000000 0.000000 0.000000 
9.429507 109.077194 -16.049963 0.000000 0.000000 0.000000 1.506882 -60.561880 2.756040 -36.174949 -5.296178 17.818509 27.658750 -16.027836 4.531551 11.778430 -3.961663 -25.271637 -11.851510 -2.511733 -1.196801 0.000000 0.000000 0.000000 2.561763 -57.890703 3.503817 -24.163297 0.527693 -27.620674 41.639268 22.747544 -4.704696 16.238251 -0.951729 27.199625 -9.829338 4.905752 -7.622276 0.000000 0.000000 0.000000 -2.240576 -58.851505 -0.420136 -2.199370 3.873726 3.777836 4.370951 1.514254 1.660334 -0.128348 -0.792481 0.099871 0.000000 0.000000 0.000000 5.025511 3.067147 1.704570 -7.064637 10.193770 -0.892667 -1.496177 10.538365 -8.094274 0.000000 0.000000 0.000000 4.261292 2.075221 1.116945 -1.056658 4.790302 -1.965618 3.603278 0.540450 -0.503836 -9.707283 -5.291935 -60.415106 168.987418 -59.520454 164.858486 0.000000 0.000000 0.000000 6.388589 2.371278 0.903296 -7.185730 0.261502 1.080702 -2.643881 0.945501 6.508776 -1.233617 31.386280 45.352781 -178.205168 56.447508 -175.783798 0.000000 0.000000 0.000000 
8.890425 114.826187 -16.063765 0.000000 0.000000 0.000000 1.607474 -56.056005 1.836630 -33.412712 -2.250221 16.181965 24.000808 -10.605966 3.453480 12.108953 0.900747 -20.788314 -11.948829 -2.616211 -1.557986 0.000000 0.000000 0.000000 2.966829 -51.884596 2.306510 -21.631218 -1.061275 -23.411223 34.603026 20.187413 -3.255566 13.001244 -3.014406 19.896201 -10.142694 4.109104 -7.596726 0.000000 0.000000 0.000000 -2.001715 -53.267324 -0.292758 -1.981268 3.130827 3.646275 4.631369 0.800623 1.463190 0.034066 -0.602578 0.163858 0.000000 0.000000 0.000000 4.261562 2.339001 1.534902 -6.408079 9.895373 -1.185286 -2.988123 10.768049 -7.377193 0.000000 0.000000 0.000000 3.955047 1.349589 0.969657 -0.864994 3.799906 -2.699681 3.009421 0.635606 -0.702046 -9.364120 -6.578495 -59.832341 172.333172 -59.074292 168.644515 0.000000 0.000000 0.000000 6.122946 1.719383 0.749585 -7.085098 1.200802 0.657853 -3.060584 0.380365 6.794008 0.524655 27.240721 43.225453 -178.768549 56.768929 -176.123900 0.000000 0.000000 0.000000 
8.179340 118.839188 -16.602575 0.000000 0.000000 0.000000 1.766519 -51.943708 1.607504 -30.617675 0.216943 15.523563 23.961608 -5.859626 2.593191 10.535164 5.667485 -16.592988 -11.963569 -2.646574 -1.914881 0.000000 0.000000 0.000000 2.205419 -47.263383 1.345860 -22.231812 -2.117343 -20.100381 29.112568 17.292473 -2.697175 10.219094 -4.092622 16.338291 -6.856863 3.648696 -8.516800 0.000000 0.000000 0.000000 -1.250577 -47.492795 0.156593 -1.779429 2.377709 3.414725 5.110227 0.119667 1.174488 0.170866 -0.555683 0.164650 0.000000 0.000000 0.000000 4.014348 1.681036 1.318624 -5.858670 9.633680 -1.406096 -5.195467 11.304517 -6.943804 0.000000 0.000000 0.000000 3.903689 0.695293 0.746165 -0.615678 2.782720 -3.437875 1.717125 0.635217 -1.089528 -9.310191 -7.146611 -59.876867 175.456645 -58.916378 172.090072 0.000000 0.000000 0.000000 6.081894 1.145703 0.520412 -6.903975 2.269863 0.393611 -3.324415 0.074900 7.276258 1.272655 23.106057 41.860010 -178.856864 58.519319 -176.811126 0.000000 0.000000 0.000000 
7.471317 120.566780 -17.487288 0.000000 0.000000 0.000000 2.133041 -47.250689 2.022831 -29.104027 1.449513 16.215755 27.571800 -3.762328 1.320772 10.383668 8.142438 -15.207203 -12.440832 -2.707037 -1.922742 0.000000 0.000000 0.000000 1.705172 -42.720631 1.674809 -26.456709 -1.043346 -18.501717 25.995316 16.830891 -3.069826 9.944670 -2.033426 19.173548 -4.121217 3.623739 -9.977161 0.000000 0.000000 0.000000 -0.200360 -41.723962 0.838589 -1.661308 1.621372 2.992107 5.692073 -0.443802 0.766620 0.274004 -0.528308 0.122754 0.000000 0.000000 0.000000 4.431666 1.146120 1.034220 -5.618139 9.428064 -1.443498 -7.697014 12.030281 -6.798694 0.000000 0.000000 0.000000 4.137772 0.182269 0.403926 -0.406426 1.793285 -3.859202 0.149157 0.275334 -1.631225 -9.881738 -7.749795 -60.291637 177.854110 -59.165742 174.769651 0.000000 0.000000 0.000000 6.304209 0.660672 0.179732 -6.648189 3.203426 0.343475 -3.599125 0.159634 7.693155 1.304454 19.315387 41.396469 -178.079124 60.825901 -178.035028 0.000000 0.000000 0.000000 
6.701899 119.770607 -18.489202 0.000000 0.000000 0.000000 2.818969 -41.958941 2.969150 -29.168893 1.423841 18.071366 33.485706 -4.125748 -0.279597 12.490716 8.463970 -16.320454 -12.543697 -2.834389 -1.776626 0.000000 0.000000 0.000000 2.421085 -37.501598 3.081672 -31.250028 2.297086 -17.410909 24.130579 19.208732 -4.076709 9.393622 2.502953 25.924866 -5.286371 4.168602 -11.589573 0.000000 0.000000 0.000000 0.878898 -35.924657 1.565909 -1.734765 0.935514 2.393347 6.221090 -0.872085 0.269590 0.303182 -0.537287 0.053583 0.000000 0.000000 0.000000 5.343510 0.759103 0.657394 -5.733302 9.244016 -1.180312 -10.116598 12.798655 -6.713812 0.000000 0.000000 0.000000 4.623082 -0.164338 -0.048174 -0.262082 0.827213 -3.756147 -1.624802 -0.193381 -2.358039 -11.283011 -9.108574 -60.700649 179.319472 -60.006436 176.479944 0.000000 0.000000 0.000000 6.786981 0.281215 -0.270349 -6.395242 3.820153 0.611416 -3.663981 0.759063 7.698491 0.765883 15.920633 41.816416 -176.316211 62.403497 -179.841763 0.000000 0.000000 0.000000 
